{
	"asset":{
		"generator":"Khronos glTF Blender I/O v4.0.44",
		"version":"2.0"
	},
	"scene":0,
	"scenes":[
		{
			"name":"export",
			"nodes":[
				0,
				1,
				2,
				3,
				4,
				5
			]
		}
	],
	"nodes":[
		{
			"mesh":0,
			"name":"bowl_stew"
		},
		{
			"mesh":1,
			"name":"stew_step_lettuce",
			"rotation":[
				0.1790483295917511,
				0.13835957646369934,
				0.08661362528800964,
				0.9702044129371643
			],
			"scale":[
				1,
				1,
				0.999996542930603
			],
			"translation":[
				-0.31700199842453003,
				0.09521159529685974,
				0.04784553498029709
			]
		},
		{
			"mesh":2,
			"name":"stew_step_potato",
			"translation":[
				0.00123262545093894,
				0,
				0
			]
		},
		{
			"mesh":3,
			"name":"stew_step_tomato",
			"translation":[
				0.00123262545093894,
				0,
				0
			]
		},
		{
			"mesh":4,
			"name":"stew_step_carrote",
			"translation":[
				0.00123262545093894,
				0,
				0
			]
		},
		{
			"mesh":5,
			"name":"stew_step_onion",
			"translation":[
				-0.005269389133900404,
				0.061344340443611145,
				0.023918094113469124
			]
		}
	],
	"materials":[
		{
			"doubleSided":true,
			"name":"restaurant.010",
			"pbrMetallicRoughness":{
				"baseColorTexture":{
					"index":0
				},
				"metallicFactor":0,
				"roughnessFactor":0.5
			}
		},
		{
			"doubleSided":true,
			"name":"restaurant.004",
			"pbrMetallicRoughness":{
				"baseColorTexture":{
					"index":1
				},
				"metallicFactor":0,
				"roughnessFactor":0.5
			}
		},
		{
			"doubleSided":true,
			"name":"restaurant.009",
			"pbrMetallicRoughness":{
				"baseColorTexture":{
					"index":2
				},
				"metallicFactor":0,
				"roughnessFactor":0.5
			}
		}
	],
	"meshes":[
		{
			"name":"Sphere.019",
			"primitives":[
				{
					"attributes":{
						"POSITION":0,
						"NORMAL":1,
						"TEXCOORD_0":2
					},
					"indices":3,
					"material":0
				}
			]
		},
		{
			"name":"Icosphere.004",
			"primitives":[
				{
					"attributes":{
						"POSITION":4,
						"NORMAL":5,
						"TEXCOORD_0":6
					},
					"indices":7,
					"material":1
				}
			]
		},
		{
			"name":"Sphere.013",
			"primitives":[
				{
					"attributes":{
						"POSITION":8,
						"NORMAL":9,
						"TEXCOORD_0":10
					},
					"indices":11,
					"material":2
				}
			]
		},
		{
			"name":"Sphere.016",
			"primitives":[
				{
					"attributes":{
						"POSITION":12,
						"NORMAL":13,
						"TEXCOORD_0":14
					},
					"indices":15,
					"material":2
				}
			]
		},
		{
			"name":"Sphere.017",
			"primitives":[
				{
					"attributes":{
						"POSITION":16,
						"NORMAL":17,
						"TEXCOORD_0":18
					},
					"indices":19,
					"material":2
				}
			]
		},
		{
			"name":"Sphere.015",
			"primitives":[
				{
					"attributes":{
						"POSITION":20,
						"NORMAL":21,
						"TEXCOORD_0":22
					},
					"indices":23,
					"material":1
				}
			]
		}
	],
	"textures":[
		{
			"sampler":0,
			"source":0
		},
		{
			"sampler":0,
			"source":0
		},
		{
			"sampler":0,
			"source":0
		}
	],
	"images":[
		{
			"mimeType":"image/png",
			"name":"restaurantbits_texture",
			"uri":"restaurantbits_texture.png"
		}
	],
	"accessors":[
		{
			"bufferView":0,
			"componentType":5126,
			"count":210,
			"max":[
				0.47499993443489075,
				0.1627008318901062,
				0.4749999940395355
			],
			"min":[
				-0.4750000834465027,
				-0.13729920983314514,
				-0.4750000834465027
			],
			"type":"VEC3"
		},
		{
			"bufferView":1,
			"componentType":5126,
			"count":210,
			"type":"VEC3"
		},
		{
			"bufferView":2,
			"componentType":5126,
			"count":210,
			"type":"VEC2"
		},
		{
			"bufferView":3,
			"componentType":5123,
			"count":768,
			"type":"SCALAR"
		},
		{
			"bufferView":4,
			"componentType":5126,
			"count":116,
			"max":[
				0.7314501404762268,
				0.18497684597969055,
				0.2631175220012665
			],
			"min":[
				-0.10321767628192902,
				-0.22275957465171814,
				-0.2008684128522873
			],
			"type":"VEC3"
		},
		{
			"bufferView":5,
			"componentType":5126,
			"count":116,
			"type":"VEC3"
		},
		{
			"bufferView":6,
			"componentType":5126,
			"count":116,
			"type":"VEC2"
		},
		{
			"bufferView":7,
			"componentType":5123,
			"count":456,
			"type":"SCALAR"
		},
		{
			"bufferView":8,
			"componentType":5126,
			"count":111,
			"max":[
				0.24914538860321045,
				0.20989276468753815,
				0.27378079295158386
			],
			"min":[
				-0.2808804214000702,
				-0.03909306228160858,
				-0.19081208109855652
			],
			"type":"VEC3"
		},
		{
			"bufferView":9,
			"componentType":5126,
			"count":111,
			"type":"VEC3"
		},
		{
			"bufferView":10,
			"componentType":5126,
			"count":111,
			"type":"VEC2"
		},
		{
			"bufferView":11,
			"componentType":5123,
			"count":282,
			"type":"SCALAR"
		},
		{
			"bufferView":12,
			"componentType":5126,
			"count":17,
			"max":[
				0.3877444267272949,
				0.08021010458469391,
				0.39665088057518005
			],
			"min":[
				-0.3976796865463257,
				0.08021010458469391,
				-0.38877323269844055
			],
			"type":"VEC3"
		},
		{
			"bufferView":13,
			"componentType":5126,
			"count":17,
			"type":"VEC3"
		},
		{
			"bufferView":14,
			"componentType":5126,
			"count":17,
			"type":"VEC2"
		},
		{
			"bufferView":15,
			"componentType":5123,
			"count":48,
			"type":"SCALAR"
		},
		{
			"bufferView":16,
			"componentType":5126,
			"count":180,
			"max":[
				0.3174597918987274,
				0.16938073933124542,
				0.28947094082832336
			],
			"min":[
				-0.227951779961586,
				-0.03725789114832878,
				-0.3533734679222107
			],
			"type":"VEC3"
		},
		{
			"bufferView":17,
			"componentType":5126,
			"count":180,
			"type":"VEC3"
		},
		{
			"bufferView":18,
			"componentType":5126,
			"count":180,
			"type":"VEC2"
		},
		{
			"bufferView":19,
			"componentType":5123,
			"count":432,
			"type":"SCALAR"
		},
		{
			"bufferView":20,
			"componentType":5126,
			"count":768,
			"max":[
				0.28365206718444824,
				0.08294935524463654,
				0.2967331111431122
			],
			"min":[
				-0.22778180241584778,
				-0.09691336750984192,
				-0.30432552099227905
			],
			"type":"VEC3"
		},
		{
			"bufferView":21,
			"componentType":5126,
			"count":768,
			"type":"VEC3"
		},
		{
			"bufferView":22,
			"componentType":5126,
			"count":768,
			"type":"VEC2"
		},
		{
			"bufferView":23,
			"componentType":5123,
			"count":2304,
			"type":"SCALAR"
		}
	],
	"bufferViews":[
		{
			"buffer":0,
			"byteLength":2520,
			"byteOffset":0,
			"target":34962
		},
		{
			"buffer":0,
			"byteLength":2520,
			"byteOffset":2520,
			"target":34962
		},
		{
			"buffer":0,
			"byteLength":1680,
			"byteOffset":5040,
			"target":34962
		},
		{
			"buffer":0,
			"byteLength":1536,
			"byteOffset":6720,
			"target":34963
		},
		{
			"buffer":0,
			"byteLength":1392,
			"byteOffset":8256,
			"target":34962
		},
		{
			"buffer":0,
			"byteLength":1392,
			"byteOffset":9648,
			"target":34962
		},
		{
			"buffer":0,
			"byteLength":928,
			"byteOffset":11040,
			"target":34962
		},
		{
			"buffer":0,
			"byteLength":912,
			"byteOffset":11968,
			"target":34963
		},
		{
			"buffer":0,
			"byteLength":1332,
			"byteOffset":12880,
			"target":34962
		},
		{
			"buffer":0,
			"byteLength":1332,
			"byteOffset":14212,
			"target":34962
		},
		{
			"buffer":0,
			"byteLength":888,
			"byteOffset":15544,
			"target":34962
		},
		{
			"buffer":0,
			"byteLength":564,
			"byteOffset":16432,
			"target":34963
		},
		{
			"buffer":0,
			"byteLength":204,
			"byteOffset":16996,
			"target":34962
		},
		{
			"buffer":0,
			"byteLength":204,
			"byteOffset":17200,
			"target":34962
		},
		{
			"buffer":0,
			"byteLength":136,
			"byteOffset":17404,
			"target":34962
		},
		{
			"buffer":0,
			"byteLength":96,
			"byteOffset":17540,
			"target":34963
		},
		{
			"buffer":0,
			"byteLength":2160,
			"byteOffset":17636,
			"target":34962
		},
		{
			"buffer":0,
			"byteLength":2160,
			"byteOffset":19796,
			"target":34962
		},
		{
			"buffer":0,
			"byteLength":1440,
			"byteOffset":21956,
			"target":34962
		},
		{
			"buffer":0,
			"byteLength":864,
			"byteOffset":23396,
			"target":34963
		},
		{
			"buffer":0,
			"byteLength":9216,
			"byteOffset":24260,
			"target":34962
		},
		{
			"buffer":0,
			"byteLength":9216,
			"byteOffset":33476,
			"target":34962
		},
		{
			"buffer":0,
			"byteLength":6144,
			"byteOffset":42692,
			"target":34962
		},
		{
			"buffer":0,
			"byteLength":4608,
			"byteOffset":48836,
			"target":34963
		}
	],
	"samplers":[
		{
			"magFilter":9729,
			"minFilter":9987
		}
	],
	"buffers":[
		{
			"byteLength":53444,
			"uri":"bowl_stew.bin"
		}
	]
}
