{
	"asset":{
		"generator":"Khronos glTF Blender I/O v4.0.44",
		"version":"2.0"
	},
	"scene":0,
	"scenes":[
		{
			"name":"export",
			"nodes":[
				0
			]
		}
	],
	"nodes":[
		{
			"mesh":0,
			"name":"crate_onions"
		}
	],
	"materials":[
		{
			"doubleSided":true,
			"name":"restaurant.012",
			"pbrMetallicRoughness":{
				"baseColorTexture":{
					"index":0
				},
				"metallicFactor":0,
				"roughnessFactor":0.5
			}
		}
	],
	"meshes":[
		{
			"name":"Cube.026",
			"primitives":[
				{
					"attributes":{
						"POSITION":0,
						"NORMAL":1,
						"TEXCOORD_0":2
					},
					"indices":3,
					"material":0
				}
			]
		}
	],
	"textures":[
		{
			"sampler":0,
			"source":0
		}
	],
	"images":[
		{
			"mimeType":"image/png",
			"name":"restaurantbits_texture",
			"uri":"restaurantbits_texture.png"
		}
	],
	"accessors":[
		{
			"bufferView":0,
			"componentType":5126,
			"count":1596,
			"max":[
				1,
				0.9234251379966736,
				1.000002145767212
			],
			"min":[
				-1.000000238418579,
				-1.9073486328125e-06,
				-1.0000025033950806
			],
			"type":"VEC3"
		},
		{
			"bufferView":1,
			"componentType":5126,
			"count":1596,
			"type":"VEC3"
		},
		{
			"bufferView":2,
			"componentType":5126,
			"count":1596,
			"type":"VEC2"
		},
		{
			"bufferView":3,
			"componentType":5123,
			"count":4956,
			"type":"SCALAR"
		}
	],
	"bufferViews":[
		{
			"buffer":0,
			"byteLength":19152,
			"byteOffset":0,
			"target":34962
		},
		{
			"buffer":0,
			"byteLength":19152,
			"byteOffset":19152,
			"target":34962
		},
		{
			"buffer":0,
			"byteLength":12768,
			"byteOffset":38304,
			"target":34962
		},
		{
			"buffer":0,
			"byteLength":9912,
			"byteOffset":51072,
			"target":34963
		}
	],
	"samplers":[
		{
			"magFilter":9729,
			"minFilter":9987
		}
	],
	"buffers":[
		{
			"byteLength":60984,
			"uri":"crate_onions.bin"
		}
	]
}
