{
	"asset":{
		"generator":"Khronos glTF Blender I/O v4.0.44",
		"version":"2.0"
	},
	"scene":0,
	"scenes":[
		{
			"name":"export",
			"nodes":[
				0
			]
		}
	],
	"nodes":[
		{
			"mesh":0,
			"name":"food_ingredient_onion_rings"
		}
	],
	"materials":[
		{
			"doubleSided":true,
			"name":"restaurant.004",
			"pbrMetallicRoughness":{
				"baseColorTexture":{
					"index":0
				},
				"metallicFactor":0,
				"roughnessFactor":0.5
			}
		}
	],
	"meshes":[
		{
			"name":"Sphere.004",
			"primitives":[
				{
					"attributes":{
						"POSITION":0,
						"NORMAL":1,
						"TEXCOORD_0":2
					},
					"indices":3,
					"material":0
				}
			]
		}
	],
	"textures":[
		{
			"sampler":0,
			"source":0
		}
	],
	"images":[
		{
			"mimeType":"image/png",
			"name":"restaurantbits_texture",
			"uri":"restaurantbits_texture.png"
		}
	],
	"accessors":[
		{
			"bufferView":0,
			"componentType":5126,
			"count":960,
			"max":[
				0.4355402886867523,
				0.1004929319024086,
				0.38980889320373535
			],
			"min":[
				-0.4228803217411041,
				-0.05562577396631241,
				-0.41979143023490906
			],
			"type":"VEC3"
		},
		{
			"bufferView":1,
			"componentType":5126,
			"count":960,
			"type":"VEC3"
		},
		{
			"bufferView":2,
			"componentType":5126,
			"count":960,
			"type":"VEC2"
		},
		{
			"bufferView":3,
			"componentType":5123,
			"count":2880,
			"type":"SCALAR"
		}
	],
	"bufferViews":[
		{
			"buffer":0,
			"byteLength":11520,
			"byteOffset":0,
			"target":34962
		},
		{
			"buffer":0,
			"byteLength":11520,
			"byteOffset":11520,
			"target":34962
		},
		{
			"buffer":0,
			"byteLength":7680,
			"byteOffset":23040,
			"target":34962
		},
		{
			"buffer":0,
			"byteLength":5760,
			"byteOffset":30720,
			"target":34963
		}
	],
	"samplers":[
		{
			"magFilter":9729,
			"minFilter":9987
		}
	],
	"buffers":[
		{
			"byteLength":36480,
			"uri":"food_ingredient_onion_rings.bin"
		}
	]
}
