{
	"asset":{
		"generator":"Khronos glTF Blender I/O v4.0.44",
		"version":"2.0"
	},
	"scene":0,
	"scenes":[
		{
			"name":"export",
			"nodes":[
				0
			]
		}
	],
	"nodes":[
		{
			"mesh":0,
			"name":"food_ingredient_carrot_pieces.001"
		}
	],
	"materials":[
		{
			"doubleSided":true,
			"name":"restaurant.002",
			"pbrMetallicRoughness":{
				"baseColorTexture":{
					"index":0
				},
				"metallicFactor":0,
				"roughnessFactor":0.5
			}
		}
	],
	"meshes":[
		{
			"name":"Cylinder.005",
			"primitives":[
				{
					"attributes":{
						"POSITION":0,
						"NORMAL":1,
						"TEXCOORD_0":2
					},
					"indices":3,
					"material":0
				}
			]
		}
	],
	"textures":[
		{
			"sampler":0,
			"source":0
		}
	],
	"images":[
		{
			"mimeType":"image/png",
			"name":"restaurantbits_texture",
			"uri":"restaurantbits_texture.png"
		}
	],
	"accessors":[
		{
			"bufferView":0,
			"componentType":5126,
			"count":584,
			"max":[
				0.291410893201828,
				0.1918553113937378,
				0.2913416922092438
			],
			"min":[
				-0.25156354904174805,
				-0.13074243068695068,
				-0.4277310073375702
			],
			"type":"VEC3"
		},
		{
			"bufferView":1,
			"componentType":5126,
			"count":584,
			"type":"VEC3"
		},
		{
			"bufferView":2,
			"componentType":5126,
			"count":584,
			"type":"VEC2"
		},
		{
			"bufferView":3,
			"componentType":5123,
			"count":1728,
			"type":"SCALAR"
		}
	],
	"bufferViews":[
		{
			"buffer":0,
			"byteLength":7008,
			"byteOffset":0,
			"target":34962
		},
		{
			"buffer":0,
			"byteLength":7008,
			"byteOffset":7008,
			"target":34962
		},
		{
			"buffer":0,
			"byteLength":4672,
			"byteOffset":14016,
			"target":34962
		},
		{
			"buffer":0,
			"byteLength":3456,
			"byteOffset":18688,
			"target":34963
		}
	],
	"samplers":[
		{
			"magFilter":9729,
			"minFilter":9987
		}
	],
	"buffers":[
		{
			"byteLength":22144,
			"uri":"food_ingredient_carrot_pieces.bin"
		}
	]
}
