{
	"asset":{
		"generator":"Khronos glTF Blender I/O v4.0.44",
		"version":"2.0"
	},
	"scene":0,
	"scenes":[
		{
			"name":"export",
			"nodes":[
				0
			]
		}
	],
	"nodes":[
		{
			"mesh":0,
			"name":"kitchencounter_step_box"
		}
	],
	"materials":[
		{
			"doubleSided":true,
			"name":"restaurant.018",
			"pbrMetallicRoughness":{
				"baseColorTexture":{
					"index":0
				},
				"metallicFactor":0,
				"roughnessFactor":0.5
			}
		},
		{
			"doubleSided":true,
			"name":"restaurant",
			"pbrMetallicRoughness":{
				"baseColorTexture":{
					"index":1
				},
				"metallicFactor":0,
				"roughnessFactor":0.5
			}
		},
		{
			"doubleSided":true,
			"name":"restaurant.011",
			"pbrMetallicRoughness":{
				"baseColorTexture":{
					"index":2
				},
				"metallicFactor":0,
				"roughnessFactor":0.5
			}
		},
		{
			"doubleSided":true,
			"name":"restaurant.016",
			"pbrMetallicRoughness":{
				"baseColorTexture":{
					"index":3
				},
				"metallicFactor":0,
				"roughnessFactor":0.5
			}
		},
		{
			"doubleSided":true,
			"name":"restaurant.017",
			"pbrMetallicRoughness":{
				"baseColorTexture":{
					"index":4
				},
				"metallicFactor":0,
				"roughnessFactor":0.5
			}
		}
	],
	"meshes":[
		{
			"name":"Cube.033",
			"primitives":[
				{
					"attributes":{
						"POSITION":0,
						"NORMAL":1,
						"TEXCOORD_0":2
					},
					"indices":3,
					"material":0
				},
				{
					"attributes":{
						"POSITION":4,
						"NORMAL":5,
						"TEXCOORD_0":6
					},
					"indices":7,
					"material":1
				},
				{
					"attributes":{
						"POSITION":8,
						"NORMAL":9,
						"TEXCOORD_0":10
					},
					"indices":7,
					"material":2
				},
				{
					"attributes":{
						"POSITION":11,
						"NORMAL":12,
						"TEXCOORD_0":13
					},
					"indices":7,
					"material":3
				},
				{
					"attributes":{
						"POSITION":14,
						"NORMAL":15,
						"TEXCOORD_0":16
					},
					"indices":7,
					"material":4
				}
			]
		}
	],
	"textures":[
		{
			"sampler":0,
			"source":0
		},
		{
			"sampler":0,
			"source":0
		},
		{
			"sampler":0,
			"source":0
		},
		{
			"sampler":0,
			"source":0
		},
		{
			"sampler":0,
			"source":0
		}
	],
	"images":[
		{
			"mimeType":"image/png",
			"name":"restaurantbits_texture",
			"uri":"restaurantbits_texture.png"
		}
	],
	"accessors":[
		{
			"bufferView":0,
			"componentType":5126,
			"count":220,
			"max":[
				0.9999246597290039,
				1.0000224113464355,
				1.048469066619873
			],
			"min":[
				-1.0000754594802856,
				2.2530555725097656e-05,
				-0.993433952331543
			],
			"type":"VEC3"
		},
		{
			"bufferView":1,
			"componentType":5126,
			"count":220,
			"type":"VEC3"
		},
		{
			"bufferView":2,
			"componentType":5126,
			"count":220,
			"type":"VEC2"
		},
		{
			"bufferView":3,
			"componentType":5123,
			"count":504,
			"type":"SCALAR"
		},
		{
			"bufferView":4,
			"componentType":5126,
			"count":208,
			"max":[
				-0.08587834239006042,
				1.1252224445343018,
				-0.08587834239006042
			],
			"min":[
				-0.9141216278076172,
				0.9987308979034424,
				-0.9141216278076172
			],
			"type":"VEC3"
		},
		{
			"bufferView":5,
			"componentType":5126,
			"count":208,
			"type":"VEC3"
		},
		{
			"bufferView":6,
			"componentType":5126,
			"count":208,
			"type":"VEC2"
		},
		{
			"bufferView":7,
			"componentType":5123,
			"count":324,
			"type":"SCALAR"
		},
		{
			"bufferView":8,
			"componentType":5126,
			"count":208,
			"max":[
				0.9141216278076172,
				1.1252224445343018,
				-0.08587834239006042
			],
			"min":[
				0.08587837219238281,
				0.9987308979034424,
				-0.9141216278076172
			],
			"type":"VEC3"
		},
		{
			"bufferView":9,
			"componentType":5126,
			"count":208,
			"type":"VEC3"
		},
		{
			"bufferView":10,
			"componentType":5126,
			"count":208,
			"type":"VEC2"
		},
		{
			"bufferView":11,
			"componentType":5126,
			"count":208,
			"max":[
				-0.08587834239006042,
				1.1252224445343018,
				0.9141216278076172
			],
			"min":[
				-0.9141216278076172,
				0.9987308979034424,
				0.08587837219238281
			],
			"type":"VEC3"
		},
		{
			"bufferView":12,
			"componentType":5126,
			"count":208,
			"type":"VEC3"
		},
		{
			"bufferView":13,
			"componentType":5126,
			"count":208,
			"type":"VEC2"
		},
		{
			"bufferView":14,
			"componentType":5126,
			"count":208,
			"max":[
				0.9141216278076172,
				1.1252224445343018,
				0.9141216278076172
			],
			"min":[
				0.08587837219238281,
				0.9987308979034424,
				0.08587837219238281
			],
			"type":"VEC3"
		},
		{
			"bufferView":15,
			"componentType":5126,
			"count":208,
			"type":"VEC3"
		},
		{
			"bufferView":16,
			"componentType":5126,
			"count":208,
			"type":"VEC2"
		}
	],
	"bufferViews":[
		{
			"buffer":0,
			"byteLength":2640,
			"byteOffset":0,
			"target":34962
		},
		{
			"buffer":0,
			"byteLength":2640,
			"byteOffset":2640,
			"target":34962
		},
		{
			"buffer":0,
			"byteLength":1760,
			"byteOffset":5280,
			"target":34962
		},
		{
			"buffer":0,
			"byteLength":1008,
			"byteOffset":7040,
			"target":34963
		},
		{
			"buffer":0,
			"byteLength":2496,
			"byteOffset":8048,
			"target":34962
		},
		{
			"buffer":0,
			"byteLength":2496,
			"byteOffset":10544,
			"target":34962
		},
		{
			"buffer":0,
			"byteLength":1664,
			"byteOffset":13040,
			"target":34962
		},
		{
			"buffer":0,
			"byteLength":648,
			"byteOffset":14704,
			"target":34963
		},
		{
			"buffer":0,
			"byteLength":2496,
			"byteOffset":15352,
			"target":34962
		},
		{
			"buffer":0,
			"byteLength":2496,
			"byteOffset":17848,
			"target":34962
		},
		{
			"buffer":0,
			"byteLength":1664,
			"byteOffset":20344,
			"target":34962
		},
		{
			"buffer":0,
			"byteLength":2496,
			"byteOffset":22008,
			"target":34962
		},
		{
			"buffer":0,
			"byteLength":2496,
			"byteOffset":24504,
			"target":34962
		},
		{
			"buffer":0,
			"byteLength":1664,
			"byteOffset":27000,
			"target":34962
		},
		{
			"buffer":0,
			"byteLength":2496,
			"byteOffset":28664,
			"target":34962
		},
		{
			"buffer":0,
			"byteLength":2496,
			"byteOffset":31160,
			"target":34962
		},
		{
			"buffer":0,
			"byteLength":1664,
			"byteOffset":33656,
			"target":34962
		}
	],
	"samplers":[
		{
			"magFilter":9729,
			"minFilter":9987
		}
	],
	"buffers":[
		{
			"byteLength":35320,
			"uri":"kitchencounter_step_box.bin"
		}
	]
}
