{
	"asset":{
		"generator":"Khronos glTF Blender I/O v4.0.44",
		"version":"2.0"
	},
	"scene":0,
	"scenes":[
		{
			"name":"export",
			"nodes":[
				0
			]
		}
	],
	"nodes":[
		{
			"mesh":0,
			"name":"knife"
		}
	],
	"materials":[
		{
			"doubleSided":true,
			"name":"restaurant.003",
			"pbrMetallicRoughness":{
				"baseColorTexture":{
					"index":0
				},
				"metallicFactor":0,
				"roughnessFactor":0.5
			}
		}
	],
	"meshes":[
		{
			"name":"Cube.004",
			"primitives":[
				{
					"attributes":{
						"POSITION":0,
						"NORMAL":1,
						"TEXCOORD_0":2
					},
					"indices":3,
					"material":0
				}
			]
		}
	],
	"textures":[
		{
			"sampler":0,
			"source":0
		}
	],
	"images":[
		{
			"mimeType":"image/png",
			"name":"restaurantbits_texture",
			"uri":"restaurantbits_texture.png"
		}
	],
	"accessors":[
		{
			"bufferView":0,
			"componentType":5126,
			"count":123,
			"max":[
				0.0950530543923378,
				0.6130668520927429,
				0.05005137622356415
			],
			"min":[
				-0.1549469530582428,
				-0.536933183670044,
				-0.04994863644242287
			],
			"type":"VEC3"
		},
		{
			"bufferView":1,
			"componentType":5126,
			"count":123,
			"type":"VEC3"
		},
		{
			"bufferView":2,
			"componentType":5126,
			"count":123,
			"type":"VEC2"
		},
		{
			"bufferView":3,
			"componentType":5123,
			"count":312,
			"type":"SCALAR"
		}
	],
	"bufferViews":[
		{
			"buffer":0,
			"byteLength":1476,
			"byteOffset":0,
			"target":34962
		},
		{
			"buffer":0,
			"byteLength":1476,
			"byteOffset":1476,
			"target":34962
		},
		{
			"buffer":0,
			"byteLength":984,
			"byteOffset":2952,
			"target":34962
		},
		{
			"buffer":0,
			"byteLength":624,
			"byteOffset":3936,
			"target":34963
		}
	],
	"samplers":[
		{
			"magFilter":9729,
			"minFilter":9987
		}
	],
	"buffers":[
		{
			"byteLength":4560,
			"uri":"knife.bin"
		}
	]
}
