{
	"asset":{
		"generator":"Khronos glTF Blender I/O v4.0.44",
		"version":"2.0"
	},
	"scene":0,
	"scenes":[
		{
			"name":"export",
			"nodes":[
				0
			]
		}
	],
	"nodes":[
		{
			"mesh":0,
			"name":"wall_orderwindow"
		}
	],
	"materials":[
		{
			"doubleSided":true,
			"name":"restaurant.006",
			"pbrMetallicRoughness":{
				"baseColorTexture":{
					"index":0
				},
				"metallicFactor":0,
				"roughnessFactor":0.5
			}
		}
	],
	"meshes":[
		{
			"name":"Cube.019",
			"primitives":[
				{
					"attributes":{
						"POSITION":0,
						"NORMAL":1,
						"TEXCOORD_0":2
					},
					"indices":3,
					"material":0
				}
			]
		}
	],
	"textures":[
		{
			"sampler":0,
			"source":0
		}
	],
	"images":[
		{
			"mimeType":"image/png",
			"name":"restaurantbits_texture",
			"uri":"restaurantbits_texture.png"
		}
	],
	"accessors":[
		{
			"bufferView":0,
			"componentType":5126,
			"count":365,
			"max":[
				1.9999998807907104,
				4,
				0.44999998807907104
			],
			"min":[
				-2.000000476837158,
				0,
				-0.45000022649765015
			],
			"type":"VEC3"
		},
		{
			"bufferView":1,
			"componentType":5126,
			"count":365,
			"type":"VEC3"
		},
		{
			"bufferView":2,
			"componentType":5126,
			"count":365,
			"type":"VEC2"
		},
		{
			"bufferView":3,
			"componentType":5123,
			"count":618,
			"type":"SCALAR"
		}
	],
	"bufferViews":[
		{
			"buffer":0,
			"byteLength":4380,
			"byteOffset":0,
			"target":34962
		},
		{
			"buffer":0,
			"byteLength":4380,
			"byteOffset":4380,
			"target":34962
		},
		{
			"buffer":0,
			"byteLength":2920,
			"byteOffset":8760,
			"target":34962
		},
		{
			"buffer":0,
			"byteLength":1236,
			"byteOffset":11680,
			"target":34963
		}
	],
	"samplers":[
		{
			"magFilter":9729,
			"minFilter":9987
		}
	],
	"buffers":[
		{
			"byteLength":12916,
			"uri":"wall_orderwindow.bin"
		}
	]
}
