{
	"asset":{
		"generator":"Khronos glTF Blender I/O v4.0.44",
		"version":"2.0"
	},
	"scene":0,
	"scenes":[
		{
			"name":"export",
			"nodes":[
				0,
				1
			]
		}
	],
	"nodes":[
		{
			"mesh":0,
			"name":"wall_orderwindow_3_step"
		},
		{
			"mesh":1,
			"name":"ring"
		}
	],
	"materials":[
		{
			"doubleSided":true,
			"name":"restaurant.013",
			"pbrMetallicRoughness":{
				"baseColorTexture":{
					"index":0
				},
				"metallicFactor":0,
				"roughnessFactor":0.5
			}
		},
		{
			"doubleSided":true,
			"name":"restaurant.015",
			"pbrMetallicRoughness":{
				"baseColorTexture":{
					"index":1
				},
				"metallicFactor":0,
				"roughnessFactor":0.5
			}
		},
		{
			"doubleSided":true,
			"name":"restaurant",
			"pbrMetallicRoughness":{
				"baseColorTexture":{
					"index":2
				},
				"metallicFactor":0,
				"roughnessFactor":0.5
			}
		}
	],
	"meshes":[
		{
			"name":"Cube.020",
			"primitives":[
				{
					"attributes":{
						"POSITION":0,
						"NORMAL":1,
						"TEXCOORD_0":2
					},
					"indices":3,
					"material":0
				},
				{
					"attributes":{
						"POSITION":4,
						"NORMAL":5,
						"TEXCOORD_0":6
					},
					"indices":7,
					"material":1
				}
			]
		},
		{
			"name":"Cube.023",
			"primitives":[
				{
					"attributes":{
						"POSITION":8,
						"NORMAL":9,
						"TEXCOORD_0":10
					},
					"indices":11,
					"material":2
				}
			]
		}
	],
	"textures":[
		{
			"sampler":0,
			"source":0
		},
		{
			"sampler":0,
			"source":0
		},
		{
			"sampler":0,
			"source":0
		}
	],
	"images":[
		{
			"mimeType":"image/png",
			"name":"restaurantbits_texture",
			"uri":"restaurantbits_texture.png"
		}
	],
	"accessors":[
		{
			"bufferView":0,
			"componentType":5126,
			"count":400,
			"max":[
				1.588542103767395,
				3.9517438411712646,
				0.36480557918548584
			],
			"min":[
				-1.588542103767395,
				3.0283820629119873,
				0.19244366884231567
			],
			"type":"VEC3"
		},
		{
			"bufferView":1,
			"componentType":5126,
			"count":400,
			"type":"VEC3"
		},
		{
			"bufferView":2,
			"componentType":5126,
			"count":400,
			"type":"VEC2"
		},
		{
			"bufferView":3,
			"componentType":5123,
			"count":552,
			"type":"SCALAR"
		},
		{
			"bufferView":4,
			"componentType":5126,
			"count":365,
			"max":[
				1.9999998807907104,
				4,
				0.44999998807907104
			],
			"min":[
				-2.000000476837158,
				0,
				-0.45000022649765015
			],
			"type":"VEC3"
		},
		{
			"bufferView":5,
			"componentType":5126,
			"count":365,
			"type":"VEC3"
		},
		{
			"bufferView":6,
			"componentType":5126,
			"count":365,
			"type":"VEC2"
		},
		{
			"bufferView":7,
			"componentType":5123,
			"count":618,
			"type":"SCALAR"
		},
		{
			"bufferView":8,
			"componentType":5126,
			"count":316,
			"max":[
				1.2706538438796997,
				1.4862585067749023,
				0.3616322875022888
			],
			"min":[
				0.7763486504554749,
				1.1913634538650513,
				-0.13267284631729126
			],
			"type":"VEC3"
		},
		{
			"bufferView":9,
			"componentType":5126,
			"count":316,
			"type":"VEC3"
		},
		{
			"bufferView":10,
			"componentType":5126,
			"count":316,
			"type":"VEC2"
		},
		{
			"bufferView":11,
			"componentType":5123,
			"count":1644,
			"type":"SCALAR"
		}
	],
	"bufferViews":[
		{
			"buffer":0,
			"byteLength":4800,
			"byteOffset":0,
			"target":34962
		},
		{
			"buffer":0,
			"byteLength":4800,
			"byteOffset":4800,
			"target":34962
		},
		{
			"buffer":0,
			"byteLength":3200,
			"byteOffset":9600,
			"target":34962
		},
		{
			"buffer":0,
			"byteLength":1104,
			"byteOffset":12800,
			"target":34963
		},
		{
			"buffer":0,
			"byteLength":4380,
			"byteOffset":13904,
			"target":34962
		},
		{
			"buffer":0,
			"byteLength":4380,
			"byteOffset":18284,
			"target":34962
		},
		{
			"buffer":0,
			"byteLength":2920,
			"byteOffset":22664,
			"target":34962
		},
		{
			"buffer":0,
			"byteLength":1236,
			"byteOffset":25584,
			"target":34963
		},
		{
			"buffer":0,
			"byteLength":3792,
			"byteOffset":26820,
			"target":34962
		},
		{
			"buffer":0,
			"byteLength":3792,
			"byteOffset":30612,
			"target":34962
		},
		{
			"buffer":0,
			"byteLength":2528,
			"byteOffset":34404,
			"target":34962
		},
		{
			"buffer":0,
			"byteLength":3288,
			"byteOffset":36932,
			"target":34963
		}
	],
	"samplers":[
		{
			"magFilter":9729,
			"minFilter":9987
		}
	],
	"buffers":[
		{
			"byteLength":40220,
			"uri":"wall_orderwindow_3_step.bin"
		}
	]
}
