{
	"asset":{
		"generator":"Khronos glTF Blender I/O v4.0.44",
		"version":"2.0"
	},
	"scene":0,
	"scenes":[
		{
			"name":"export",
			"nodes":[
				0
			]
		}
	],
	"nodes":[
		{
			"mesh":0,
			"name":"barrel_small_stack.001",
			"rotation":[
				0.7071068286895752,
				0,
				0,
				0.7071068286895752
			]
		}
	],
	"materials":[
		{
			"doubleSided":true,
			"name":"texture_dungeon.001",
			"pbrMetallicRoughness":{
				"baseColorTexture":{
					"index":0
				},
				"metallicFactor":0,
				"roughnessFactor":0.44999998807907104
			}
		}
	],
	"meshes":[
		{
			"name":"Cylinder.001",
			"primitives":[
				{
					"attributes":{
						"POSITION":0,
						"NORMAL":1,
						"TEXCOORD_0":2
					},
					"indices":3,
					"material":0
				}
			]
		}
	],
	"textures":[
		{
			"sampler":0,
			"source":0
		}
	],
	"images":[
		{
			"mimeType":"image/png",
			"name":"dungeon_texture",
			"uri":"dungeon_texture.png"
		}
	],
	"accessors":[
		{
			"bufferView":0,
			"componentType":5126,
			"count":2082,
			"max":[
				0.9250689148902893,
				0.5000000596046448,
				-7.502316634599993e-07
			],
			"min":[
				-0.9250713586807251,
				-0.5,
				-1.7701389789581299
			],
			"type":"VEC3"
		},
		{
			"bufferView":1,
			"componentType":5126,
			"count":2082,
			"type":"VEC3"
		},
		{
			"bufferView":2,
			"componentType":5126,
			"count":2082,
			"type":"VEC2"
		},
		{
			"bufferView":3,
			"componentType":5123,
			"count":3447,
			"type":"SCALAR"
		}
	],
	"bufferViews":[
		{
			"buffer":0,
			"byteLength":24984,
			"byteOffset":0,
			"target":34962
		},
		{
			"buffer":0,
			"byteLength":24984,
			"byteOffset":24984,
			"target":34962
		},
		{
			"buffer":0,
			"byteLength":16656,
			"byteOffset":49968,
			"target":34962
		},
		{
			"buffer":0,
			"byteLength":6894,
			"byteOffset":66624,
			"target":34963
		}
	],
	"samplers":[
		{
			"magFilter":9729,
			"minFilter":9987
		}
	],
	"buffers":[
		{
			"byteLength":73520,
			"uri":"barrel_small_stack.bin"
		}
	]
}
