{
	"asset":{
		"generator":"Khronos glTF Blender I/O v4.0.44",
		"version":"2.0"
	},
	"scene":0,
	"scenes":[
		{
			"name":"export",
			"nodes":[
				0
			]
		}
	],
	"nodes":[
		{
			"mesh":0,
			"name":"candle_triple",
			"rotation":[
				0.7071068286895752,
				0,
				0,
				0.7071068286895752
			]
		}
	],
	"materials":[
		{
			"doubleSided":true,
			"name":"texture_dungeon.002",
			"pbrMetallicRoughness":{
				"baseColorTexture":{
					"index":0
				},
				"metallicFactor":0,
				"roughnessFactor":0.44999998807907104
			}
		}
	],
	"meshes":[
		{
			"name":"Cylinder.005",
			"primitives":[
				{
					"attributes":{
						"POSITION":0,
						"NORMAL":1,
						"TEXCOORD_0":2
					},
					"indices":3,
					"material":0
				}
			]
		}
	],
	"textures":[
		{
			"sampler":0,
			"source":0
		}
	],
	"images":[
		{
			"mimeType":"image/png",
			"name":"dungeon_texture",
			"uri":"dungeon_texture.png"
		}
	],
	"accessors":[
		{
			"bufferView":0,
			"componentType":5126,
			"count":360,
			"max":[
				0.3339931070804596,
				0.230397567152977,
				0
			],
			"min":[
				-0.16718551516532898,
				-0.15952658653259277,
				-1.0194370746612549
			],
			"type":"VEC3"
		},
		{
			"bufferView":1,
			"componentType":5126,
			"count":360,
			"type":"VEC3"
		},
		{
			"bufferView":2,
			"componentType":5126,
			"count":360,
			"type":"VEC2"
		},
		{
			"bufferView":3,
			"componentType":5123,
			"count":1080,
			"type":"SCALAR"
		}
	],
	"bufferViews":[
		{
			"buffer":0,
			"byteLength":4320,
			"byteOffset":0,
			"target":34962
		},
		{
			"buffer":0,
			"byteLength":4320,
			"byteOffset":4320,
			"target":34962
		},
		{
			"buffer":0,
			"byteLength":2880,
			"byteOffset":8640,
			"target":34962
		},
		{
			"buffer":0,
			"byteLength":2160,
			"byteOffset":11520,
			"target":34963
		}
	],
	"samplers":[
		{
			"magFilter":9729,
			"minFilter":9987
		}
	],
	"buffers":[
		{
			"byteLength":13680,
			"uri":"candle_triple.bin"
		}
	]
}
