{
	"asset":{
		"generator":"Khronos glTF Blender I/O v4.0.44",
		"version":"2.0"
	},
	"scene":0,
	"scenes":[
		{
			"name":"export",
			"nodes":[
				0
			]
		}
	],
	"nodes":[
		{
			"mesh":0,
			"name":"floor_wood_large"
		}
	],
	"materials":[
		{
			"doubleSided":true,
			"name":"texture_dungeon.001",
			"pbrMetallicRoughness":{
				"baseColorTexture":{
					"index":0
				},
				"metallicFactor":0,
				"roughnessFactor":0.44999998807907104
			}
		}
	],
	"meshes":[
		{
			"name":"Cube.010",
			"primitives":[
				{
					"attributes":{
						"POSITION":0,
						"NORMAL":1,
						"TEXCOORD_0":2
					},
					"indices":3,
					"material":0
				}
			]
		}
	],
	"textures":[
		{
			"sampler":0,
			"source":0
		}
	],
	"images":[
		{
			"mimeType":"image/png",
			"name":"dungeon_texture",
			"uri":"dungeon_texture.png"
		}
	],
	"accessors":[
		{
			"bufferView":0,
			"componentType":5126,
			"count":528,
			"max":[
				1.9999998807907104,
				0.08648157119750977,
				1.7870526313781738
			],
			"min":[
				-1.9999998807907104,
				-0.06351852416992188,
				-2.212947130203247
			],
			"type":"VEC3"
		},
		{
			"bufferView":1,
			"componentType":5126,
			"count":528,
			"type":"VEC3"
		},
		{
			"bufferView":2,
			"componentType":5126,
			"count":528,
			"type":"VEC2"
		},
		{
			"bufferView":3,
			"componentType":5123,
			"count":822,
			"type":"SCALAR"
		}
	],
	"bufferViews":[
		{
			"buffer":0,
			"byteLength":6336,
			"byteOffset":0,
			"target":34962
		},
		{
			"buffer":0,
			"byteLength":6336,
			"byteOffset":6336,
			"target":34962
		},
		{
			"buffer":0,
			"byteLength":4224,
			"byteOffset":12672,
			"target":34962
		},
		{
			"buffer":0,
			"byteLength":1644,
			"byteOffset":16896,
			"target":34963
		}
	],
	"samplers":[
		{
			"magFilter":9729,
			"minFilter":9987
		}
	],
	"buffers":[
		{
			"byteLength":18540,
			"uri":"floor_wood_large.bin"
		}
	]
}
