{
	"asset":{
		"generator":"Khronos glTF Blender I/O v4.0.44",
		"version":"2.0"
	},
	"scene":0,
	"scenes":[
		{
			"name":"export",
			"nodes":[
				0
			]
		}
	],
	"nodes":[
		{
			"mesh":0,
			"name":"stairs_wood_decorated.001",
			"rotation":[
				0.7071068286895752,
				0,
				0,
				0.7071068286895752
			]
		}
	],
	"materials":[
		{
			"doubleSided":true,
			"name":"texture_dungeon.001",
			"pbrMetallicRoughness":{
				"baseColorTexture":{
					"index":0
				},
				"metallicFactor":0,
				"roughnessFactor":0.44999998807907104
			}
		}
	],
	"meshes":[
		{
			"name":"Cube.008",
			"primitives":[
				{
					"attributes":{
						"POSITION":0,
						"NORMAL":1,
						"TEXCOORD_0":2
					},
					"indices":3,
					"material":0
				}
			]
		}
	],
	"textures":[
		{
			"sampler":0,
			"source":0
		}
	],
	"images":[
		{
			"mimeType":"image/png",
			"name":"dungeon_texture",
			"uri":"dungeon_texture.png"
		}
	],
	"accessors":[
		{
			"bufferView":0,
			"componentType":5126,
			"count":3875,
			"max":[
				1.649999976158142,
				6,
				1.4901161193847656e-07
			],
			"min":[
				-1.649999976158142,
				0,
				-4.050000190734863
			],
			"type":"VEC3"
		},
		{
			"bufferView":1,
			"componentType":5126,
			"count":3875,
			"type":"VEC3"
		},
		{
			"bufferView":2,
			"componentType":5126,
			"count":3875,
			"type":"VEC2"
		},
		{
			"bufferView":3,
			"componentType":5123,
			"count":7611,
			"type":"SCALAR"
		}
	],
	"bufferViews":[
		{
			"buffer":0,
			"byteLength":46500,
			"byteOffset":0,
			"target":34962
		},
		{
			"buffer":0,
			"byteLength":46500,
			"byteOffset":46500,
			"target":34962
		},
		{
			"buffer":0,
			"byteLength":31000,
			"byteOffset":93000,
			"target":34962
		},
		{
			"buffer":0,
			"byteLength":15222,
			"byteOffset":124000,
			"target":34963
		}
	],
	"samplers":[
		{
			"magFilter":9729,
			"minFilter":9987
		}
	],
	"buffers":[
		{
			"byteLength":139224,
			"uri":"stairs_wood_decorated.bin"
		}
	]
}
