{
	"asset":{
		"generator":"Khronos glTF Blender I/O v4.0.44",
		"version":"2.0"
	},
	"scene":0,
	"scenes":[
		{
			"name":"export",
			"nodes":[
				0
			]
		}
	],
	"nodes":[
		{
			"mesh":0,
			"name":"table_long_tablecloth_decorated_A.001",
			"rotation":[
				0.7071068286895752,
				0,
				0,
				0.7071068286895752
			]
		}
	],
	"materials":[
		{
			"doubleSided":true,
			"name":"texture_dungeon.001",
			"pbrMetallicRoughness":{
				"baseColorTexture":{
					"index":0
				},
				"metallicFactor":0,
				"roughnessFactor":0.44999998807907104
			}
		}
	],
	"meshes":[
		{
			"name":"Cube.003",
			"primitives":[
				{
					"attributes":{
						"POSITION":0,
						"NORMAL":1,
						"TEXCOORD_0":2
					},
					"indices":3,
					"material":0
				}
			]
		}
	],
	"textures":[
		{
			"sampler":0,
			"source":0
		}
	],
	"images":[
		{
			"mimeType":"image/png",
			"name":"dungeon_texture",
			"uri":"dungeon_texture.png"
		}
	],
	"accessors":[
		{
			"bufferView":0,
			"componentType":5126,
			"count":2572,
			"max":[
				1.0278241634368896,
				2.000000476837158,
				-8.195638656616211e-08
			],
			"min":[
				-1.0308187007904053,
				-2,
				-1.8857145309448242
			],
			"type":"VEC3"
		},
		{
			"bufferView":1,
			"componentType":5126,
			"count":2572,
			"type":"VEC3"
		},
		{
			"bufferView":2,
			"componentType":5126,
			"count":2572,
			"type":"VEC2"
		},
		{
			"bufferView":3,
			"componentType":5123,
			"count":6105,
			"type":"SCALAR"
		}
	],
	"bufferViews":[
		{
			"buffer":0,
			"byteLength":30864,
			"byteOffset":0,
			"target":34962
		},
		{
			"buffer":0,
			"byteLength":30864,
			"byteOffset":30864,
			"target":34962
		},
		{
			"buffer":0,
			"byteLength":20576,
			"byteOffset":61728,
			"target":34962
		},
		{
			"buffer":0,
			"byteLength":12210,
			"byteOffset":82304,
			"target":34963
		}
	],
	"samplers":[
		{
			"magFilter":9729,
			"minFilter":9987
		}
	],
	"buffers":[
		{
			"byteLength":94516,
			"uri":"table_long_tablecloth_decorated_A.bin"
		}
	]
}
