{
	"asset":{
		"generator":"Khronos glTF Blender I/O v4.0.44",
		"version":"2.0"
	},
	"scene":0,
	"scenes":[
		{
			"name":"export",
			"nodes":[
				0
			]
		}
	],
	"nodes":[
		{
			"mesh":0,
			"name":"wall_doorway_scaffold_door",
			"rotation":[
				0.7071068286895752,
				0,
				0,
				0.7071068286895752
			],
			"translation":[
				-0.820098876953125,
				0,
				0
			]
		}
	],
	"materials":[
		{
			"doubleSided":true,
			"name":"texture_dungeon.004",
			"pbrMetallicRoughness":{
				"baseColorTexture":{
					"index":0
				},
				"metallicFactor":0,
				"roughnessFactor":0.44999998807907104
			}
		}
	],
	"meshes":[
		{
			"name":"Cube.015",
			"primitives":[
				{
					"attributes":{
						"POSITION":0,
						"NORMAL":1,
						"TEXCOORD_0":2
					},
					"indices":3,
					"material":0
				}
			]
		}
	],
	"textures":[
		{
			"sampler":0,
			"source":0
		}
	],
	"images":[
		{
			"mimeType":"image/png",
			"name":"dungeon_texture",
			"uri":"dungeon_texture.png"
		}
	],
	"accessors":[
		{
			"bufferView":0,
			"componentType":5126,
			"count":1614,
			"max":[
				2.820098876953125,
				0.5000002384185791,
				3.774894707930798e-08
			],
			"min":[
				-1.179901123046875,
				-0.4999999701976776,
				-4
			],
			"type":"VEC3"
		},
		{
			"bufferView":1,
			"componentType":5126,
			"count":1614,
			"type":"VEC3"
		},
		{
			"bufferView":2,
			"componentType":5126,
			"count":1614,
			"type":"VEC2"
		},
		{
			"bufferView":3,
			"componentType":5123,
			"count":3450,
			"type":"SCALAR"
		}
	],
	"bufferViews":[
		{
			"buffer":0,
			"byteLength":19368,
			"byteOffset":0,
			"target":34962
		},
		{
			"buffer":0,
			"byteLength":19368,
			"byteOffset":19368,
			"target":34962
		},
		{
			"buffer":0,
			"byteLength":12912,
			"byteOffset":38736,
			"target":34962
		},
		{
			"buffer":0,
			"byteLength":6900,
			"byteOffset":51648,
			"target":34963
		}
	],
	"samplers":[
		{
			"magFilter":9729,
			"minFilter":9987
		}
	],
	"buffers":[
		{
			"byteLength":58548,
			"uri":"wall_doorway_scaffold_door.bin"
		}
	]
}
