{
	"asset":{
		"generator":"Khronos glTF Blender I/O v4.0.44",
		"version":"2.0"
	},
	"scene":0,
	"scenes":[
		{
			"name":"export",
			"nodes":[
				0
			]
		}
	],
	"nodes":[
		{
			"mesh":0,
			"name":"wall_corner_scaffold.001",
			"rotation":[
				0.7071068286895752,
				0,
				0,
				0.7071068286895752
			]
		}
	],
	"materials":[
		{
			"doubleSided":true,
			"name":"texture_dungeon.001",
			"pbrMetallicRoughness":{
				"baseColorTexture":{
					"index":0
				},
				"metallicFactor":0,
				"roughnessFactor":0.44999998807907104
			}
		}
	],
	"meshes":[
		{
			"name":"Cube.002",
			"primitives":[
				{
					"attributes":{
						"POSITION":0,
						"NORMAL":1,
						"TEXCOORD_0":2
					},
					"indices":3,
					"material":0
				}
			]
		}
	],
	"textures":[
		{
			"sampler":0,
			"source":0
		}
	],
	"images":[
		{
			"mimeType":"image/png",
			"name":"dungeon_texture",
			"uri":"dungeon_texture.png"
		}
	],
	"accessors":[
		{
			"bufferView":0,
			"componentType":5126,
			"count":1034,
			"max":[
				0.5,
				2.00006103515625,
				0
			],
			"min":[
				-2,
				-0.4999999701976776,
				-4
			],
			"type":"VEC3"
		},
		{
			"bufferView":1,
			"componentType":5126,
			"count":1034,
			"type":"VEC3"
		},
		{
			"bufferView":2,
			"componentType":5126,
			"count":1034,
			"type":"VEC2"
		},
		{
			"bufferView":3,
			"componentType":5123,
			"count":1545,
			"type":"SCALAR"
		}
	],
	"bufferViews":[
		{
			"buffer":0,
			"byteLength":12408,
			"byteOffset":0,
			"target":34962
		},
		{
			"buffer":0,
			"byteLength":12408,
			"byteOffset":12408,
			"target":34962
		},
		{
			"buffer":0,
			"byteLength":8272,
			"byteOffset":24816,
			"target":34962
		},
		{
			"buffer":0,
			"byteLength":3090,
			"byteOffset":33088,
			"target":34963
		}
	],
	"samplers":[
		{
			"magFilter":9729,
			"minFilter":9987
		}
	],
	"buffers":[
		{
			"byteLength":36180,
			"uri":"wall_corner_scaffold.bin"
		}
	]
}
